<svg xmlns="http://www.w3.org/2000/svg" width="1510" height="512" fill="none" viewBox="0 0 1510 512"><path fill="#000" d="M374.551 233.336L259.847 301.764L417.081 307.002L512 471.405H0L256 28L374.551 233.336Z"/><path fill="#000" d="M813.375 386.75L655.875 218.375V386H615V134H630L787.5 304.625V134.75H828.75V386.75H813.375ZM932.25 160.625C924.25 160.625 917.5 157.75 912 152C906.5 146.25 903.75 139.75 903.75 132.5C903.75 125 906.5 118.5 912 113C917.5 107.25 924.25 104.375 932.25 104.375C937.5 104.375 942.25 105.75 946.5 108.5C950.75 111 954.125 114.375 956.625 118.625C959.375 122.875 960.75 127.5 960.75 132.5C960.75 137.25 959.375 141.875 956.625 146.375C954.125 150.625 950.75 154.125 946.5 156.875C942.25 159.375 937.5 160.625 932.25 160.625ZM917.625 386V197.75H955.125V386H917.625ZM887.625 231.5V197.75H955.125V231.5H887.625ZM1104 391.625C1089.75 391.625 1076.62 389.125 1064.62 384.125C1052.62 378.875 1042.12 371.625 1033.12 362.375C1024.38 353.125 1017.5 342.625 1012.5 330.875C1007.75 318.875 1005.38 306.25 1005.38 293C1005.38 279.75 1007.75 267.125 1012.5 255.125C1017.5 243.125 1024.38 232.625 1033.12 223.625C1042.12 214.375 1052.62 207.125 1064.62 201.875C1076.62 196.375 1089.75 193.625 1104 193.625C1117.75 193.625 1129.38 195.875 1138.88 200.375C1148.62 204.625 1155.62 208.75 1159.88 212.75V248.75C1153.12 243.75 1145.38 239.5 1136.62 236C1128.12 232.25 1117.75 230.375 1105.5 230.375C1093.75 230.375 1083.25 233.25 1074 239C1064.75 244.75 1057.5 252.375 1052.25 261.875C1047.25 271.125 1044.75 281.5 1044.75 293C1044.75 304.25 1047.25 314.625 1052.25 324.125C1057.25 333.625 1064.38 341.25 1073.62 347C1082.88 352.5 1093.5 355.25 1105.5 355.25C1117.75 355.25 1128.12 353.5 1136.62 350C1145.38 346.25 1153.12 341.875 1159.88 336.875V372.875C1155.62 376.875 1148.62 381 1138.88 385.25C1129.38 389.5 1117.75 391.625 1104 391.625ZM1293.38 391.625C1279.38 391.625 1266.38 389.125 1254.38 384.125C1242.38 378.875 1231.75 371.75 1222.5 362.75C1213.5 353.5 1206.5 343 1201.5 331.25C1196.5 319.25 1194 306.375 1194 292.625C1194 279.125 1196.5 266.375 1201.5 254.375C1206.5 242.375 1213.5 231.875 1222.5 222.875C1231.75 213.875 1242.38 206.75 1254.38 201.5C1266.38 196.25 1279.38 193.625 1293.38 193.625C1307.38 193.625 1320.38 196.25 1332.38 201.5C1344.38 206.75 1354.88 213.875 1363.88 222.875C1373.12 231.875 1380.25 242.375 1385.25 254.375C1390.25 266.375 1392.75 279.125 1392.75 292.625C1392.75 306.375 1390.25 319.25 1385.25 331.25C1380.25 343 1373.12 353.5 1363.88 362.75C1354.88 371.75 1344.38 378.875 1332.38 384.125C1320.38 389.125 1307.38 391.625 1293.38 391.625ZM1293.38 355.25C1305.12 355.25 1315.5 352.5 1324.5 347C1333.5 341.5 1340.5 334 1345.5 324.5C1350.75 315 1353.38 304.375 1353.38 292.625C1353.38 280.625 1350.75 270 1345.5 260.75C1340.5 251.25 1333.5 243.75 1324.5 238.25C1315.5 232.75 1305.12 230 1293.38 230C1281.88 230 1271.5 232.75 1262.25 238.25C1253.25 243.75 1246.12 251.25 1240.88 260.75C1235.88 270 1233.38 280.625 1233.38 292.625C1233.38 304.375 1235.88 315 1240.88 324.5C1246.12 334 1253.25 341.5 1262.25 347C1271.5 352.5 1281.88 355.25 1293.38 355.25ZM1441.12 386V116H1478.62V386H1441.12Z"/></svg>